<svg version="1.1" id="Layer_1" xmlns="http://www.w3.org/2000/svg" xmlns:xlink="http://www.w3.org/1999/xlink" x="0px" y="0px"
	 width="100%" viewBox="0 0 362 181" enable-background="new 0 0 362 181" xml:space="preserve">
<path fill="#FEFEFE" opacity="1.000000" stroke="none" 
	d="
M0.999999,120.000000 
	C1.000000,80.349358 1.000000,40.698723 1.000000,1.024042 
	C121.601875,1.024042 242.203751,1.024042 362.902832,1.024042 
	C362.902832,61.244030 362.902832,121.488274 362.902832,181.866257 
	C242.333435,181.866257 121.666740,181.866257 1.000000,181.866257 
	C1.000000,162.588409 1.000000,143.262863 1.354442,123.381195 
	C7.861063,129.389709 11.610213,129.784348 15.405205,123.562042 
	C22.055355,112.658394 28.226503,101.463402 34.667767,90.431007 
	C36.424881,87.421478 35.520210,85.049263 33.301563,82.876381 
	C29.687229,79.336594 24.799295,80.511650 21.865599,85.661362 
	C15.869425,96.186844 9.945911,106.753929 3.896552,117.248581 
	C3.258940,118.354736 1.980911,119.091736 0.999999,120.000000 
M174.272186,118.935814 
	C185.679260,117.188835 190.909149,109.700943 191.476425,98.999992 
	C192.061615,87.960754 189.424484,78.331345 177.762146,75.480019 
	C169.752518,73.521729 161.127426,74.080772 152.188080,73.474640 
	C152.188080,88.768593 152.134521,102.864838 152.310303,116.958221 
	C152.321854,117.883957 154.081833,119.569138 155.036530,119.574890 
	C161.167267,119.611824 167.300247,119.278427 174.272186,118.935814 
M351.389221,114.854485 
	C353.298187,113.146317 353.426819,111.457062 351.142059,110.039680 
	C349.277679,108.883102 347.493713,106.879616 345.202240,109.734795 
	C342.434784,113.183006 338.579437,112.816238 335.263275,111.118866 
	C333.559021,110.246544 332.724030,107.675911 330.716858,104.728210 
	C338.307526,104.728210 344.100311,104.892647 349.871033,104.608826 
	C351.257050,104.540657 353.467834,103.220871 353.770752,102.073219 
	C355.747345,94.584976 350.720642,86.730247 343.189453,84.957535 
	C332.264557,82.386002 324.124298,87.842468 321.953217,99.192307 
	C320.425842,107.176880 323.427094,114.394402 329.752258,117.947929 
	C336.231110,121.587791 345.448669,120.485008 351.389221,114.854485 
M112.656395,88.132927 
	C112.106995,89.156624 111.634529,90.231415 110.994560,91.194954 
	C108.538834,94.892265 108.984741,98.101852 112.666534,100.620499 
	C115.915436,102.843010 120.109810,101.868797 122.447647,97.897003 
	C129.091568,86.609505 135.514832,75.191261 141.948853,63.781567 
	C143.869919,60.374844 142.356995,57.664394 139.591522,55.576942 
	C136.521805,53.259838 133.558151,53.986916 131.200073,56.688564 
	C129.690826,58.417709 128.561493,60.501202 127.396675,62.504250 
	C122.566017,70.811234 117.786652,79.148041 112.656395,88.132927 
M65.819313,83.360527 
	C69.447182,77.034927 73.073105,70.708206 76.703644,64.384140 
	C78.876076,60.599957 77.585121,57.636105 74.320267,55.397163 
	C70.884682,53.041138 67.589172,54.200901 65.710594,57.326355 
	C58.879517,68.691505 52.277252,80.199463 45.844151,91.795280 
	C43.959175,95.193001 44.678284,98.673714 48.230370,100.898880 
	C51.324585,102.837227 55.202843,101.501656 57.465809,97.750404 
	C60.203957,93.211464 62.791782,88.581848 65.819313,83.360527 
M77.284576,102.738106 
	C74.568466,107.503281 71.784233,112.231270 69.156288,117.044571 
	C66.753891,121.444778 67.366020,124.927170 70.693306,127.001602 
	C73.900108,129.000946 78.007690,127.812202 80.392487,123.712433 
	C86.651436,112.952469 92.754211,102.100746 98.831535,91.236534 
	C100.878296,87.577614 100.737854,83.887360 96.814590,81.714188 
	C93.002426,79.602539 89.766602,81.078308 87.610413,84.833397 
	C84.301514,90.595993 80.987770,96.355797 77.284576,102.738106 
M242.372391,119.444237 
	C248.845871,119.538452 255.319077,119.678596 261.792877,119.714088 
	C268.389526,119.750259 268.841431,119.108124 267.093018,111.966782 
	C262.393402,111.966782 257.529968,111.966782 251.668961,111.966782 
	C256.734894,105.778259 261.363190,100.617157 265.366730,95.009987 
	C267.164215,92.492493 267.712067,89.082733 269.055908,85.460846 
	C258.814270,85.460846 250.155655,85.460846 241.554977,85.460846 
	C240.878799,92.280861 241.159622,92.626740 247.177490,92.685913 
	C250.023331,92.713898 252.869675,92.690712 256.976318,92.690712 
	C251.272263,99.525391 246.614670,105.076797 241.992340,110.657410 
	C239.758972,113.353775 239.349594,116.183838 242.372391,119.444237 
M288.458679,84.988472 
	C284.126953,84.989113 279.793732,85.058945 275.464111,84.964096 
	C272.923553,84.908440 271.365906,85.518845 271.248444,88.489883 
	C271.124695,91.620537 272.652832,92.676567 275.435394,92.680809 
	C279.036469,92.686287 282.637543,92.682152 287.044861,92.682152 
	C284.881561,95.451286 283.323547,97.540924 281.665253,99.547729 
	C278.602844,103.253716 275.104034,106.670906 272.546570,110.691536 
	C271.293945,112.660828 271.193634,115.834206 271.713318,118.213272 
	C271.904388,119.087929 275.369965,119.585335 277.364746,119.662048 
	C282.521851,119.860382 287.691681,119.739418 292.856384,119.725708 
	C299.109558,119.709114 299.467499,119.222771 298.010773,112.009735 
	C292.996460,112.009735 287.817078,112.009735 281.773926,112.009735 
	C286.378662,106.474586 290.053009,101.553825 294.268402,97.151039 
	C297.607971,93.662956 298.862335,90.069283 297.314575,84.988457 
	C294.692352,84.988457 292.066895,84.988457 288.458679,84.988472 
M313.775085,76.775002 
	C314.218964,72.992363 313.225677,71.032059 308.728302,71.043137 
	C304.089935,71.054581 304.205719,73.582283 304.224457,76.799973 
	C304.289276,87.926331 304.244202,99.053360 304.234283,110.180130 
	C304.228485,116.671875 308.053436,120.407166 314.524780,119.891083 
	C315.966125,119.776138 318.535522,118.621918 318.508423,118.043419 
	C318.416748,116.084953 317.751556,112.778412 316.658356,112.496468 
	C313.214203,111.608215 313.802277,109.318291 313.793579,107.113693 
	C313.754944,97.315582 313.775604,87.517235 313.775085,76.775002 
M199.208374,103.495392 
	C199.208481,107.314819 199.343521,111.140480 199.167282,114.951752 
	C199.018265,118.174324 199.801804,119.899590 203.533951,119.808983 
	C207.194595,119.720108 209.149658,118.785713 208.813950,114.658386 
	C208.518784,111.029221 208.725937,107.356415 208.764359,103.703445 
	C208.855560,95.034920 209.244202,94.853706 217.832504,92.871773 
	C219.198822,92.556473 220.235672,89.576767 220.765869,87.647758 
	C220.919785,87.087776 218.661362,85.024162 217.720184,85.156235 
	C214.472763,85.611938 211.318695,86.733017 208.182495,87.586166 
	C206.982391,82.384796 202.818054,85.821556 199.208878,85.172134 
	C199.208878,91.279778 199.208878,96.889038 199.208374,103.495392 
M235.016006,109.441605 
	C235.016006,101.393417 235.016006,93.345230 235.016006,84.986000 
	C232.352554,84.986000 230.539902,85.065552 228.737061,84.966637 
	C226.270248,84.831276 225.129471,85.709564 225.158615,88.371468 
	C225.260223,97.655632 225.086716,106.944588 225.336136,116.223160 
	C225.368240,117.417480 227.114822,119.351036 228.335037,119.593338 
	C233.873322,120.693092 234.995895,119.574684 235.015396,113.902382 
	C235.019394,112.741737 235.016006,111.581055 235.016006,109.441605 
M233.440567,71.899734 
	C229.931213,70.200363 226.722626,70.568810 225.226578,74.366905 
	C224.619019,75.909370 225.459152,79.637032 226.225433,79.812218 
	C228.847916,80.411774 232.289490,80.804878 234.376389,79.547226 
	C237.217010,77.835342 236.306351,74.681740 233.440567,71.899734 
z"/>
<path fill="#AAAAAA" opacity="1.000000" stroke="none" 
	d="
M0.999999,120.375000 
	C1.980911,119.091736 3.258940,118.354736 3.896552,117.248581 
	C9.945911,106.753929 15.869425,96.186844 21.865599,85.661362 
	C24.799295,80.511650 29.687229,79.336594 33.301563,82.876381 
	C35.520210,85.049263 36.424881,87.421478 34.667767,90.431007 
	C28.226503,101.463402 22.055355,112.658394 15.405205,123.562042 
	C11.610213,129.784348 7.861063,129.389709 1.354442,122.912537 
	C1.000000,122.250000 1.000000,121.500000 0.999999,120.375000 
z"/>
<path fill="#A7A7A7" opacity="1.000000" stroke="none" 
	d="
M173.852325,119.001259 
	C167.300247,119.278427 161.167267,119.611824 155.036530,119.574890 
	C154.081833,119.569138 152.321854,117.883957 152.310303,116.958221 
	C152.134521,102.864838 152.188080,88.768593 152.188080,73.474640 
	C161.127426,74.080772 169.752518,73.521729 177.762146,75.480019 
	C189.424484,78.331345 192.061615,87.960754 191.476425,98.999992 
	C190.909149,109.700943 185.679260,117.188835 173.852325,119.001259 
M161.922150,108.286263 
	C162.131607,109.060493 162.086472,110.199028 162.590729,110.551453 
	C166.707123,113.428360 178.562408,110.505463 179.673645,105.804375 
	C180.842407,100.860062 181.429138,95.354889 180.490768,90.434105 
	C179.050552,82.881516 172.725250,80.567932 161.913666,82.721336 
	C161.913666,90.826950 161.913666,99.074860 161.922150,108.286263 
z"/>
<path fill="#A9A9A9" opacity="1.000000" stroke="none" 
	d="
M351.155701,115.134827 
	C345.448669,120.485008 336.231110,121.587791 329.752258,117.947929 
	C323.427094,114.394402 320.425842,107.176880 321.953217,99.192307 
	C324.124298,87.842468 332.264557,82.386002 343.189453,84.957535 
	C350.720642,86.730247 355.747345,94.584976 353.770752,102.073219 
	C353.467834,103.220871 351.257050,104.540657 349.871033,104.608826 
	C344.100311,104.892647 338.307526,104.728210 330.716858,104.728210 
	C332.724030,107.675911 333.559021,110.246544 335.263275,111.118866 
	C338.579437,112.816238 342.434784,113.183006 345.202240,109.734795 
	C347.493713,106.879616 349.277679,108.883102 351.142059,110.039680 
	C353.426819,111.457062 353.298187,113.146317 351.155701,115.134827 
M332.105408,96.879845 
	C336.214142,97.426537 340.322845,97.973236 344.431580,98.519936 
	C344.782898,97.755402 345.134216,96.990868 345.485535,96.226334 
	C343.588318,94.565369 341.942230,92.134880 339.737732,91.415504 
	C336.001831,90.196365 333.573883,92.693062 332.105408,96.879845 
z"/>
<path fill="#AAAAAA" opacity="1.000000" stroke="none" 
	d="
M112.822433,87.803421 
	C117.786652,79.148041 122.566017,70.811234 127.396675,62.504250 
	C128.561493,60.501202 129.690826,58.417709 131.200073,56.688564 
	C133.558151,53.986916 136.521805,53.259838 139.591522,55.576942 
	C142.356995,57.664394 143.869919,60.374844 141.948853,63.781567 
	C135.514832,75.191261 129.091568,86.609505 122.447647,97.897003 
	C120.109810,101.868797 115.915436,102.843010 112.666534,100.620499 
	C108.984741,98.101852 108.538834,94.892265 110.994560,91.194954 
	C111.634529,90.231415 112.106995,89.156624 112.822433,87.803421 
z"/>
<path fill="#AAAAAA" opacity="1.000000" stroke="none" 
	d="
M65.631989,83.675995 
	C62.791782,88.581848 60.203957,93.211464 57.465809,97.750404 
	C55.202843,101.501656 51.324585,102.837227 48.230370,100.898880 
	C44.678284,98.673714 43.959175,95.193001 45.844151,91.795280 
	C52.277252,80.199463 58.879517,68.691505 65.710594,57.326355 
	C67.589172,54.200901 70.884682,53.041138 74.320267,55.397163 
	C77.585121,57.636105 78.876076,60.599957 76.703644,64.384140 
	C73.073105,70.708206 69.447182,77.034927 65.631989,83.675995 
z"/>
<path fill="#A9A9A9" opacity="1.000000" stroke="none" 
	d="
M77.480331,102.427444 
	C80.987770,96.355797 84.301514,90.595993 87.610413,84.833397 
	C89.766602,81.078308 93.002426,79.602539 96.814590,81.714188 
	C100.737854,83.887360 100.878296,87.577614 98.831535,91.236534 
	C92.754211,102.100746 86.651436,112.952469 80.392487,123.712433 
	C78.007690,127.812202 73.900108,129.000946 70.693306,127.001602 
	C67.366020,124.927170 66.753891,121.444778 69.156288,117.044571 
	C71.784233,112.231270 74.568466,107.503281 77.480331,102.427444 
z"/>
<path fill="#A7A7A7" opacity="1.000000" stroke="none" 
	d="
M241.989594,119.277107 
	C239.349594,116.183838 239.758972,113.353775 241.992340,110.657410 
	C246.614670,105.076797 251.272263,99.525391 256.976318,92.690712 
	C252.869675,92.690712 250.023331,92.713898 247.177490,92.685913 
	C241.159622,92.626740 240.878799,92.280861 241.554977,85.460846 
	C250.155655,85.460846 258.814270,85.460846 269.055908,85.460846 
	C267.712067,89.082733 267.164215,92.492493 265.366730,95.009987 
	C261.363190,100.617157 256.734894,105.778259 251.668961,111.966782 
	C257.529968,111.966782 262.393402,111.966782 267.093018,111.966782 
	C268.841431,119.108124 268.389526,119.750259 261.792877,119.714088 
	C255.319077,119.678596 248.845871,119.538452 241.989594,119.277107 
z"/>
<path fill="#A7A7A7" opacity="1.000000" stroke="none" 
	d="
M288.950073,84.988464 
	C292.066895,84.988457 294.692352,84.988457 297.314575,84.988457 
	C298.862335,90.069283 297.607971,93.662956 294.268402,97.151039 
	C290.053009,101.553825 286.378662,106.474586 281.773926,112.009735 
	C287.817078,112.009735 292.996460,112.009735 298.010773,112.009735 
	C299.467499,119.222771 299.109558,119.709114 292.856384,119.725708 
	C287.691681,119.739418 282.521851,119.860382 277.364746,119.662048 
	C275.369965,119.585335 271.904388,119.087929 271.713318,118.213272 
	C271.193634,115.834206 271.293945,112.660828 272.546570,110.691536 
	C275.104034,106.670906 278.602844,103.253716 281.665253,99.547729 
	C283.323547,97.540924 284.881561,95.451286 287.044861,92.682152 
	C282.637543,92.682152 279.036469,92.686287 275.435394,92.680809 
	C272.652832,92.676567 271.124695,91.620537 271.248444,88.489883 
	C271.365906,85.518845 272.923553,84.908440 275.464111,84.964096 
	C279.793732,85.058945 284.126953,84.989113 288.950073,84.988464 
z"/>
<path fill="#A7A7A7" opacity="1.000000" stroke="none" 
	d="
M313.774963,77.246994 
	C313.775604,87.517235 313.754944,97.315582 313.793579,107.113693 
	C313.802277,109.318291 313.214203,111.608215 316.658356,112.496468 
	C317.751556,112.778412 318.416748,116.084953 318.508423,118.043419 
	C318.535522,118.621918 315.966125,119.776138 314.524780,119.891083 
	C308.053436,120.407166 304.228485,116.671875 304.234283,110.180130 
	C304.244202,99.053360 304.289276,87.926331 304.224457,76.799973 
	C304.205719,73.582283 304.089935,71.054581 308.728302,71.043137 
	C313.225677,71.032059 314.218964,72.992363 313.774963,77.246994 
z"/>
<path fill="#A7A7A7" opacity="1.000000" stroke="none" 
	d="
M199.208618,102.996849 
	C199.208878,96.889038 199.208878,91.279778 199.208878,85.172134 
	C202.818054,85.821556 206.982391,82.384796 208.182495,87.586166 
	C211.318695,86.733017 214.472763,85.611938 217.720184,85.156235 
	C218.661362,85.024162 220.919785,87.087776 220.765869,87.647758 
	C220.235672,89.576767 219.198822,92.556473 217.832504,92.871773 
	C209.244202,94.853706 208.855560,95.034920 208.764359,103.703445 
	C208.725937,107.356415 208.518784,111.029221 208.813950,114.658386 
	C209.149658,118.785713 207.194595,119.720108 203.533951,119.808983 
	C199.801804,119.899590 199.018265,118.174324 199.167282,114.951752 
	C199.343521,111.140480 199.208481,107.314819 199.208618,102.996849 
z"/>
<path fill="#AAAAAA" opacity="1.000000" stroke="none" 
	d="
M235.016022,109.931000 
	C235.016006,111.581055 235.019394,112.741737 235.015396,113.902382 
	C234.995895,119.574684 233.873322,120.693092 228.335037,119.593338 
	C227.114822,119.351036 225.368240,117.417480 225.336136,116.223160 
	C225.086716,106.944588 225.260223,97.655632 225.158615,88.371468 
	C225.129471,85.709564 226.270248,84.831276 228.737061,84.966637 
	C230.539902,85.065552 232.352554,84.986000 235.016006,84.986000 
	C235.016006,93.345230 235.016006,101.393417 235.016022,109.931000 
z"/>
<path fill="#AAAAAA" opacity="1.000000" stroke="none" 
	d="
M233.777130,72.100250 
	C236.306351,74.681740 237.217010,77.835342 234.376389,79.547226 
	C232.289490,80.804878 228.847916,80.411774 226.225433,79.812218 
	C225.459152,79.637032 224.619019,75.909370 225.226578,74.366905 
	C226.722626,70.568810 229.931213,70.200363 233.777130,72.100250 
z"/>
<path fill="#FDFDFD" opacity="1.000000" stroke="none" 
	d="
M161.917908,107.804520 
	C161.913666,99.074860 161.913666,90.826950 161.913666,82.721336 
	C172.725250,80.567932 179.050552,82.881516 180.490768,90.434105 
	C181.429138,95.354889 180.842407,100.860062 179.673645,105.804375 
	C178.562408,110.505463 166.707123,113.428360 162.590729,110.551453 
	C162.086472,110.199028 162.131607,109.060493 161.917908,107.804520 
z"/>
<path fill="#FDFDFD" opacity="1.000000" stroke="none" 
	d="
M332.119873,96.474518 
	C333.573883,92.693062 336.001831,90.196365 339.737732,91.415504 
	C341.942230,92.134880 343.588318,94.565369 345.485535,96.226334 
	C345.134216,96.990868 344.782898,97.755402 344.431580,98.519936 
	C340.322845,97.973236 336.214142,97.426537 332.119873,96.474518 
z"/>
</svg>