<?xml version="1.0" encoding="UTF-8"?>
<svg version="1.1" viewBox="0 0 852 1136" width="1280" height="1280" xmlns="http://www.w3.org/2000/svg">
<path transform="translate(722,3)" d="m0 0h126l1 1v1128h-844l-1-1v-1119l1-8zm-303 135-17 3-12 4-14 7-13 10-10 10-10 15-7 16-4 15-1 7v19l3 15 5 14 8 15 11 13 11 10 13 8 14 6 15 4h30l16-4 15-6 15-10 9-8v-2h2l10-14 8-15 4-13 2-11v-25l-3-14-5-13-7-13-8-10-7-8-15-11-16-8-13-4-12-2zm6 206-21 1-25 4-23 6-21 8-16 8-17 10-14 10-11 9-13 12-12 13-13 17-10 16-12 23-8 21-6 23-4 27-1 20 1 1 139 1h164l152-1 1-1v-14l-3-24-5-23-8-24-8-18-8-14-9-14-11-14-10-11-7-8-8-7-16-13-15-10-16-9-20-9-21-7-21-5-23-3zm-33 397-287 1-7 2-8 7-4 8-1 9 3 12 6 7 9 4 169 1h297l180-1 10-5 7-8 2-6v-11l-4-9-4-5-8-4-5-1-267-1zm-286 190-9 3-8 7-3 8v14l4 8 8 7 12 3h631l12-2 6-4 6-7 3-8v-10l-4-9-7-7-4-2-6-1z" fill="#1E4D84"/>
<path transform="translate(166,792)" d="m0 0h570v1l-8 1h-4l-2 1h-525v-1l-31-1z" fill="#123D78"/>
<path transform="translate(761,4)" d="m0 0h87l-1 4-2 1-3-2-231-1v-1z" fill="#14417B"/>
</svg>
