<svg xmlns="http://www.w3.org/2000/svg" version="1.1" xmlns:xlink="http://www.w3.org/1999/xlink" xmlns:svgjs="http://svgjs.dev/svgjs" width="2000" height="378" viewBox="0 0 2000 378"><g transform="matrix(1,0,0,1,-1.212118057951443,-1.110517548203461)"><svg viewBox="0 0 396 75" data-background-color="#ffffff" preserveAspectRatio="xMidYMid meet" height="378" width="2000" xmlns="http://www.w3.org/2000/svg" xmlns:xlink="http://www.w3.org/1999/xlink"><g id="tight-bounds" transform="matrix(1,0,0,1,0.23999937547438321,0.22034078337370033)"><svg viewBox="0 0 395.52 74.55931843325261" height="74.55931843325261" width="395.52"><g><svg viewBox="0 0 505.57095644538015 95.30498061340813" height="74.55931843325261" width="395.52"><g><rect width="6.219031480793876" height="69.30644393377362" x="87.55173784208924" y="12.999268339817256" fill="#1c4b82" opacity="1" stroke-width="0" stroke="transparent" fill-opacity="1" class="rect-yte-0" data-fill-palette-color="primary" rx="1%" id="yte-0" data-palette-color="#1c4b82"></rect></g><g transform="matrix(1,0,0,1,110.05095644538017,13.171672429204747)"><svg viewBox="0 0 395.52 68.96163575499864" height="68.96163575499864" width="395.52"><g id="textblocktransform"><svg viewBox="0 0 395.52 68.96163575499864" height="68.96163575499864" width="395.52" id="textblock"><g><svg viewBox="0 0 395.52 68.96163575499864" height="68.96163575499864" width="395.52"><g transform="matrix(1,0,0,1,0,0)"><svg width="395.52" viewBox="4.25 -37.1 213.91903137792 37.300000000000004" height="68.96163575499864" data-palette-color="#1c4b82"><g class="wordmark-text-0" data-fill-palette-color="primary" id="text-0"><path d="M23.6 0L23.6-15Q23.6-18.15 21.95-19.93 20.3-21.7 17.35-21.7L17.35-21.7Q13.9-21.6 11.93-19.15 9.95-16.7 9.95-13.1L9.95-13.1 8.35-13.1Q8.35-18 9.73-21 11.1-24 13.63-25.38 16.15-26.75 19.6-26.75L19.6-26.75Q22.65-26.75 24.83-25.5 27-24.25 28.18-21.98 29.35-19.7 29.35-16.5L29.35-16.5 29.35 0 23.6 0ZM42.95 0L42.95-15Q42.95-18.15 41.28-19.93 39.6-21.7 36.65-21.7L36.65-21.7Q33.25-21.6 31.3-19.15 29.35-16.7 29.35-13.1L29.35-13.1 27.7-13.1Q27.7-18 29.08-21 30.45-24 32.98-25.38 35.5-26.75 38.95-26.75L38.95-26.75Q42-26.75 44.18-25.5 46.35-24.25 47.53-21.98 48.7-19.7 48.7-16.5L48.7-16.5 48.7 0 42.95 0ZM4.25 0L4.25-26.55 9.95-26.55 9.95 0 4.25 0ZM67.8-26.75L67.8-26.75Q71.9-26.75 75.02-25.05 78.15-23.35 79.9-20.33 81.65-17.3 81.65-13.3L81.65-13.3Q81.65-9.3 79.9-6.25 78.15-3.2 75.02-1.5 71.9 0.2 67.8 0.2L67.8 0.2Q63.7 0.2 60.55-1.5 57.4-3.2 55.65-6.25 53.9-9.3 53.9-13.3L53.9-13.3Q53.9-17.3 55.65-20.33 57.4-23.35 60.55-25.05 63.7-26.75 67.8-26.75ZM67.8-22.1L67.8-22.1Q65.4-22.1 63.55-20.98 61.7-19.85 60.67-17.85 59.65-15.85 59.65-13.25L59.65-13.25Q59.65-10.6 60.67-8.6 61.7-6.6 63.55-5.48 65.4-4.35 67.8-4.35L67.8-4.35Q70.2-4.35 72.02-5.48 73.85-6.6 74.87-8.6 75.9-10.6 75.9-13.25L75.9-13.25Q75.9-15.85 74.87-17.85 73.85-19.85 72.02-20.98 70.2-22.1 67.8-22.1ZM109.55-22.65L106.4-18.95Q105-20.4 103.1-21.2 101.2-22 98.8-22L98.8-22Q96.5-22 94.7-20.9 92.9-19.8 91.9-17.82 90.9-15.85 90.9-13.25L90.9-13.25Q90.9-10.65 91.9-8.68 92.9-6.7 94.7-5.58 96.5-4.45 98.8-4.45L98.8-4.45Q101.3-4.45 103.3-5.28 105.3-6.1 106.65-7.7L106.65-7.7 109.85-4.55Q108.05-2.3 105.17-1.05 102.3 0.2 98.55 0.2L98.55 0.2Q94.6 0.2 91.57-1.5 88.55-3.2 86.85-6.23 85.15-9.25 85.15-13.25L85.15-13.25Q85.15-17.25 86.85-20.28 88.55-23.3 91.57-25.03 94.6-26.75 98.55-26.75L98.55-26.75Q102.15-26.75 104.92-25.68 107.7-24.6 109.55-22.65L109.55-22.65ZM116.09 0L116.09-37.1 121.84-37.1 121.84 0 116.09 0ZM121.39-13.9L133.59-26.55 140.19-26.55 121.39-7.05 121.39-13.9ZM125.54-13.65L129.79-17.1 140.94 0 134.14 0 125.54-13.65ZM160.54-26.75L160.54-21.55Q157.69-21.7 155.62-20.58 153.54-19.45 152.42-17.45 151.29-15.45 151.29-12.85L151.29-12.85 149.69-13.05Q149.69-17.5 150.99-20.55 152.29-23.6 154.74-25.18 157.19-26.75 160.54-26.75L160.54-26.75ZM145.59 0L145.59-26.55 151.34-26.55 151.34 0 145.59 0ZM167.44-15.2L183.69-15.2Q183.59-17.45 182.66-19.03 181.74-20.6 180.09-21.48 178.44-22.35 176.29-22.35L176.29-22.35Q173.89-22.35 172.11-21.25 170.34-20.15 169.34-18.18 168.34-16.2 168.34-13.55L168.34-13.55Q168.34-10.7 169.41-8.6 170.49-6.5 172.41-5.35 174.34-4.2 176.84-4.2L176.84-4.2Q181.29-4.2 184.34-7.35L184.34-7.35 187.39-4.3Q185.44-2.15 182.64-0.98 179.84 0.2 176.39 0.2L176.39 0.2Q172.29 0.2 169.24-1.5 166.19-3.2 164.49-6.23 162.79-9.25 162.79-13.25L162.79-13.25Q162.79-17.25 164.49-20.28 166.19-23.3 169.24-25 172.29-26.7 176.24-26.75L176.24-26.75Q180.94-26.75 183.79-24.83 186.64-22.9 187.84-19.4 189.04-15.9 188.69-11.1L188.69-11.1 167.44-11.1 167.44-15.2ZM196.84-15.2L213.09-15.2Q212.99-17.45 212.06-19.03 211.14-20.6 209.49-21.48 207.84-22.35 205.69-22.35L205.69-22.35Q203.29-22.35 201.51-21.25 199.74-20.15 198.74-18.18 197.74-16.2 197.74-13.55L197.74-13.55Q197.74-10.7 198.81-8.6 199.89-6.5 201.81-5.35 203.74-4.2 206.24-4.2L206.24-4.2Q210.69-4.2 213.74-7.35L213.74-7.35 216.79-4.3Q214.84-2.15 212.04-0.98 209.24 0.2 205.79 0.2L205.79 0.2Q201.69 0.2 198.64-1.5 195.59-3.2 193.89-6.23 192.19-9.25 192.19-13.25L192.19-13.25Q192.19-17.25 193.89-20.28 195.59-23.3 198.64-25 201.69-26.7 205.64-26.75L205.64-26.75Q210.34-26.75 213.19-24.83 216.04-22.9 217.24-19.4 218.44-15.9 218.09-11.1L218.09-11.1 196.84-11.1 196.84-15.2Z" fill="#1c4b82" data-fill-palette-color="primary"></path></g></svg></g></svg></g></svg></g></svg></g><g><svg viewBox="0 0 71.27155071959218 95.30498061340813" height="95.30498061340813" width="71.27155071959218"><g><svg xmlns="http://www.w3.org/2000/svg" xmlns:xlink="http://www.w3.org/1999/xlink" version="1.1" x="0" y="0" viewBox="6.8 1 34.400000000000006 46" enable-background="new 0 0 48 48" xml:space="preserve" height="95.30498061340813" width="71.27155071959218" class="icon-icon-0" data-fill-palette-color="accent" id="icon-0"><g fill="#1c4b82" data-fill-palette-color="accent"><path fill="#1c4b82" d="M6.8 1V47H41.2V1zM24 6.5C26.2 6.5 27.9 8.3 27.9 10.4S26.2 14.3 24 14.3 20.1 12.5 20.1 10.4 21.8 6.5 24 6.5M24 14.9C29.1 14.9 33.3 19 33.3 24.2H14.7C14.7 19 18.9 14.9 24 14.9M36.9 40.8H11.1C10.5 40.8 10.1 40.4 10.1 39.8S10.5 38.8 11.1 38.8H36.9C37.5 38.8 37.9 39.2 37.9 39.8S37.4 40.8 36.9 40.8M36.9 33.1H11.1C10.5 33.1 10.1 32.7 10.1 32.1S10.5 31.1 11.1 31.1H36.9C37.5 31.1 37.9 31.5 37.9 32.1S37.4 33.1 36.9 33.1" data-fill-palette-color="accent"></path></g></svg></g></svg></g></svg></g><defs></defs></svg><rect width="395.52" height="74.55931843325261" fill="none" stroke="none" visibility="hidden"></rect></g></svg></g></svg>