<svg xmlns="http://www.w3.org/2000/svg" xmlns:xlink="http://www.w3.org/1999/xlink" width="1135" zoomAndPan="magnify" viewBox="0 0 851.25 629.999998" height="840" preserveAspectRatio="xMidYMid meet" version="1.0"><defs><clipPath id="963102480e"><path d="M 0 17.65625 L 850.5 17.65625 L 850.5 622 L 0 622 Z M 0 17.65625 " clip-rule="nonzero"/></clipPath><clipPath id="ece21cf455"><path d="M 30.894531 144.71875 L 152.285156 144.71875 L 152.285156 231 L 30.894531 231 Z M 30.894531 144.71875 " clip-rule="nonzero"/></clipPath></defs><g clip-path="url(#963102480e)"><path fill="#ff0000" d="M 46.015625 38.824219 C 46.015625 38.824219 0.0195312 47.199219 0.0195312 164.414062 C 0.0195312 281.632812 2.640625 571.488281 23.019531 591.441406 C 79.625 646.847656 314.246094 608.277344 544.675781 614.511719 C 775.109375 620.742188 850.523438 612.375 850.523438 545.386719 C 850.523438 478.402344 829.574219 135.113281 829.574219 80.6875 C 829.574219 26.257812 817.007812 17.890625 653.609375 17.890625 C 490.210938 17.890625 46.015625 38.824219 46.015625 38.824219 Z M 46.015625 38.824219 " fill-opacity="1" fill-rule="nonzero"/></g><path fill="#ffffff" d="M 267.777344 185.722656 C 267.777344 185.722656 277.203125 427.496094 283.488281 446.335938 C 289.773438 465.171875 292.917969 487.152344 374.613281 462.03125 C 456.3125 436.914062 585.140625 342.714844 585.140625 342.714844 C 585.140625 342.714844 625.988281 314.457031 585.140625 292.480469 C 544.289062 270.5 305.480469 170.027344 305.480469 170.027344 C 305.480469 170.027344 266.484375 154.246094 267.773438 185.722656 Z M 267.777344 185.722656 " fill-opacity="1" fill-rule="nonzero"/><g clip-path="url(#ece21cf455)"><path fill="#ff0000" d="M 37.445312 147.726562 C 37.445312 147.726562 30.894531 148.921875 30.894531 165.609375 C 30.894531 182.300781 31.269531 223.570312 34.171875 226.410156 C 42.230469 234.300781 75.640625 228.808594 108.457031 229.695312 C 141.269531 230.582031 152.007812 229.390625 152.007812 219.855469 C 152.007812 210.316406 149.023438 161.4375 149.023438 153.6875 C 149.023438 145.9375 147.234375 144.746094 123.96875 144.746094 C 100.699219 144.746094 37.445312 147.726562 37.445312 147.726562 Z M 37.445312 147.726562 " fill-opacity="1" fill-rule="nonzero"/></g><path fill="#ff0000" d="M 69.023438 168.644531 C 69.023438 168.644531 70.367188 203.066406 71.261719 205.75 C 72.15625 208.433594 72.605469 211.5625 84.238281 207.984375 C 95.871094 204.410156 114.21875 190.996094 114.21875 190.996094 C 114.21875 190.996094 120.035156 186.972656 114.21875 183.84375 C 108.402344 180.714844 74.394531 166.410156 74.394531 166.410156 C 74.394531 166.410156 68.839844 164.164062 69.023438 168.644531 Z M 69.023438 168.644531 " fill-opacity="1" fill-rule="nonzero"/></svg>